<?xml version="1.0" encoding="iso-8859-1"?>
<!-- Uploaded to: SVG Repo, www.svgrepo.com, Generator: SVG Repo Mixer Tools -->
<svg height="800px" width="800px" version="1.1" id="Layer_1" xmlns="http://www.w3.org/2000/svg" xmlns:xlink="http://www.w3.org/1999/xlink" 
	 viewBox="0 0 512 512" xml:space="preserve">
<g transform="translate(1 1)">
	<g>
		<path style="fill:#FFE100;" d="M348.867,192.707H161.133c-5.12,0-8.533-3.413-8.533-8.533s3.413-8.533,8.533-8.533h187.733
			c5.12,0,8.533,3.413,8.533,8.533S353.987,192.707,348.867,192.707z"/>
		<path style="fill:#FFE100;" d="M284.867,233.667c-0.853,0-2.56,0-3.413-0.853c-16.213-7.68-35.84-7.68-52.053,0
			c-4.267,1.707-9.387,0-11.093-4.267c-1.707-4.267,0-9.387,4.267-11.093c20.48-10.24,46.08-10.24,66.56,0
			c4.267,1.707,5.973,6.827,4.267,11.093C290.84,231.96,287.427,233.667,284.867,233.667z"/>
		<path style="fill:#FFE100;" d="M24.6,286.573H7.533c-5.12,0-8.533-3.413-8.533-8.533s3.413-8.533,8.533-8.533h8.533V252.44H7.533
			c-5.12,0-8.533-3.413-8.533-8.533s3.413-8.533,8.533-8.533H24.6c5.12,0,8.533,3.413,8.533,8.533v34.133
			C33.133,283.16,29.72,286.573,24.6,286.573z"/>
		<path style="fill:#FFE100;" d="M502.467,286.573H485.4c-5.12,0-8.533-3.413-8.533-8.533v-34.133c0-5.12,3.413-8.533,8.533-8.533
			h17.067c5.12,0,8.533,3.413,8.533,8.533c0,5.12-3.413,8.533-8.533,8.533h-8.533v17.067h8.533c5.12,0,8.533,3.413,8.533,8.533
			S507.587,286.573,502.467,286.573z"/>
		<path style="fill:#FFE100;" d="M281.453,226.84h202.24c-6.827-29.013-32.427-51.2-64-51.2h-75.947
			C313.027,175.64,287.427,197.827,281.453,226.84"/>
		<path style="fill:#FFE100;" d="M26.307,226.84h202.24c-5.12-29.013-30.72-51.2-61.44-51.2h-76.8
			C58.733,175.64,33.133,197.827,26.307,226.84"/>
		<path style="fill:#FFE100;" d="M284.013,278.04c6.827,22.187,25.6,39.253,49.493,42.667l75.947,12.8
			c36.693,5.973,70.827-19.627,75.947-55.467H284.013z"/>
		<path style="fill:#FFE100;" d="M225.987,278.04H25.453c5.12,35.84,39.253,61.44,75.947,55.467l75.947-12.8
			C200.387,317.293,219.16,300.227,225.987,278.04"/>
	</g>
	<g>
		<path style="fill:#FDCC00;" d="M281.453,226.84c-0.853,3.413-0.853,7.68-0.853,11.947v20.48c0,6.827,0.853,12.8,3.413,18.773
			H485.4c0.853-3.413,0.853-5.973,0.853-9.387v-27.307c0-5.12-0.853-10.24-1.707-14.507H281.453z"/>
		<path style="fill:#FDCC00;" d="M26.307,226.84c-0.853,5.12-1.707,9.387-1.707,14.507v27.307c0,3.413,0,5.973,0.853,9.387H226.84
			c1.707-5.973,3.413-12.8,3.413-18.773v-20.48c0-4.267,0-7.68-0.853-11.947H26.307z"/>
	</g>
	<path style="fill:#FFA800;" d="M419.693,179.053h-25.6c36.693,0,65.707,29.867,65.707,65.707v27.307
		c0,32.427-23.04,58.88-52.907,64.853h2.56c40.107,6.827,76.8-23.893,76.8-64.853V244.76
		C485.4,208.067,455.533,179.053,419.693,179.053"/>
	<path style="fill:#FFFFFF;" d="M90.307,175.64h25.6c-35.84,0-65.707,29.867-65.707,65.707v27.307
		c0,32.427,23.04,58.88,52.907,64.853h-2.56c-40.107,6.827-76.8-23.893-76.8-64.853v-27.307
		C24.6,205.507,54.467,175.64,90.307,175.64"/>
	<path d="M348.867,184.173H161.133c-5.12,0-8.533-3.413-8.533-8.533c0-5.12,3.413-8.533,8.533-8.533h187.733
		c5.12,0,8.533,3.413,8.533,8.533C357.4,180.76,353.987,184.173,348.867,184.173z"/>
	<path d="M284.867,225.133c-0.853,0-2.56,0-3.413-0.853c-16.213-7.68-35.84-7.68-52.053,0c-4.267,1.707-9.387,0-11.093-4.267
		c-1.707-4.267,0-9.387,4.267-11.093c20.48-10.24,46.08-10.24,66.56,0c4.267,1.707,5.973,6.827,4.267,11.093
		C290.84,223.427,287.427,225.133,284.867,225.133z"/>
	<path d="M484.547,286.573H284.013c-3.413,0-6.827-2.56-8.533-5.973c-2.56-6.827-3.413-14.507-3.413-21.333v-20.48
		c0-4.267,0-8.533,0.853-13.653c0.853-4.267,4.267-6.827,8.533-6.827h202.24c4.267,0,7.68,2.56,8.533,6.827
		c0.853,5.12,1.707,11.093,1.707,16.213v27.307c0,3.413,0,6.827-0.853,11.093C492.227,283.16,488.813,286.573,484.547,286.573z
		 M289.987,269.507h186.88v-0.853v-27.307c0-1.707,0-4.267,0-5.973H289.133c0,0.853,0,1.707,0,3.413v20.48
		C289.133,262.68,289.133,266.093,289.987,269.507z"/>
	<path d="M483.693,235.373h-202.24c-2.56,0-5.12-0.853-6.827-3.413c-1.707-1.707-2.56-4.267-1.707-6.827
		c6.827-33.28,35.84-58.027,70.827-58.027h75.947c34.987,0,64.853,23.893,72.533,58.027c0.853,2.56,0,5.12-1.707,6.827
		C488.813,234.52,486.253,235.373,483.693,235.373z M293.4,218.307h179.2c-9.387-20.48-29.013-34.133-52.053-34.133H344.6
		C320.707,184.173,301.08,197.827,293.4,218.307z"/>
	<path d="M225.987,286.573H25.453c-4.267,0-7.68-3.413-8.533-7.68c-0.853-3.413-0.853-6.827-0.853-10.24v-27.307
		c0-5.12,0.853-11.093,1.707-16.213c0.853-4.267,4.267-6.827,8.533-6.827h202.24c4.267,0,7.68,2.56,8.533,6.827
		c0,4.267,0.853,9.387,0.853,13.653v20.48c0,7.68-0.853,14.507-3.413,21.333C233.667,284.013,230.253,286.573,225.987,286.573z
		 M33.133,269.507h186.88c0.853-3.413,0.853-6.827,0.853-10.24v-20.48c0-0.853,0-1.707,0-3.413H33.133c0,1.707,0,4.267,0,5.973
		v27.307V269.507z"/>
	<path d="M228.547,235.373H26.307c-2.56,0-5.12-0.853-6.827-3.413c-1.707-1.707-1.707-4.267-1.707-6.827
		c7.68-34.133,37.547-58.027,72.533-58.027h75.947c34.133,0,64,24.747,69.973,58.027c0.853,2.56,0,5.12-1.707,6.827
		C232.813,234.52,231.107,235.373,228.547,235.373z M38.253,218.307h179.2c-8.533-20.48-28.16-34.133-50.347-34.133h-76.8
		C67.267,184.173,46.787,197.827,38.253,218.307z"/>
	<path d="M419.693,342.893L419.693,342.893c-4.267,0-8.533,0-11.947-0.853l-75.947-12.8c-26.453-4.267-47.787-23.04-56.32-48.64
		c-0.853-2.56,0-5.12,0.853-7.68c1.707-2.56,4.267-3.413,6.827-3.413h201.387c2.56,0,5.12,0.853,6.827,2.56
		c1.707,1.707,2.56,4.267,1.707,6.827C487.96,315.587,456.387,342.893,419.693,342.893z M296.813,286.573
		c7.68,13.653,21.333,23.04,37.547,25.6l75.947,12.8c3.413,0.853,5.973,0.853,9.387,0.853c24.747,0,46.933-16.213,54.613-39.253
		H296.813z"/>
	<path d="M90.307,342.893L90.307,342.893c-36.693,0-68.267-27.307-73.387-64c0-2.56,0-5.12,1.707-6.827
		c1.707-1.707,4.267-2.56,6.827-2.56H226.84c2.56,0,5.12,1.707,6.827,3.413c1.707,2.56,1.707,5.12,0.853,7.68
		c-8.533,25.6-29.867,44.373-56.32,48.64l-75.947,12.8C98.84,342.893,94.573,342.893,90.307,342.893z M35.693,286.573
		c7.68,23.04,29.013,39.253,54.613,39.253l0,0c3.413,0,5.973,0,9.387-0.853l75.947-12.8c16.213-2.56,29.867-11.947,37.547-25.6
		H35.693z"/>
	<path d="M24.6,278.04H7.533c-5.12,0-8.533-3.413-8.533-8.533s3.413-8.533,8.533-8.533h8.533v-17.067H7.533
		c-5.12,0-8.533-3.413-8.533-8.533c0-5.12,3.413-8.533,8.533-8.533H24.6c5.12,0,8.533,3.413,8.533,8.533v34.133
		C33.133,274.627,29.72,278.04,24.6,278.04z"/>
	<path d="M502.467,278.04H485.4c-5.12,0-8.533-3.413-8.533-8.533v-34.133c0-5.12,3.413-8.533,8.533-8.533h17.067
		c5.12,0,8.533,3.413,8.533,8.533c0,5.12-3.413,8.533-8.533,8.533h-8.533v17.067h8.533c5.12,0,8.533,3.413,8.533,8.533
		S507.587,278.04,502.467,278.04z"/>
</g>
</svg>